<svg width="12" height="12" viewBox="0 0 12 12" fill="none" xmlns="http://www.w3.org/2000/svg">
<g clip-path="url(#clip0_1_678)">
<path fill-rule="evenodd" clip-rule="evenodd" d="M6.00002 7.00004C5.83715 7.00004 5.68339 6.96111 5.54749 6.89204C5.54515 6.89457 5.54279 6.89707 5.54035 6.89957L4.23852 8.23291C4.10992 8.36464 3.89889 8.36714 3.76715 8.23854C3.63542 8.10994 3.63292 7.8989 3.76152 7.76717L5.06335 6.43384C5.07129 6.4257 5.07955 6.41807 5.08805 6.41094C5.03149 6.28557 5.00002 6.14647 5.00002 6.00004C5.00002 5.56464 5.27829 5.19421 5.66669 5.05694V2.12984C5.66669 1.94575 5.81592 1.79651 6.00002 1.79651C6.18412 1.79651 6.33335 1.94575 6.33335 2.12984V5.05694C6.72175 5.19421 7.00002 5.56464 7.00002 6.00004C7.00002 6.55234 6.55232 7.00004 6.00002 7.00004ZM5.66669 6.00004C5.66669 6.18414 5.81592 6.33337 6.00002 6.33337C6.18412 6.33337 6.33335 6.18414 6.33335 6.00004C6.33335 5.81594 6.18412 5.66671 6.00002 5.66671C5.81592 5.66671 5.66669 5.81594 5.66669 6.00004Z" fill="black"/>
<path fill-rule="evenodd" clip-rule="evenodd" d="M6 12C9.3137 12 12 9.3137 12 6C12 2.68629 9.3137 0 6 0C2.68629 0 0 2.68629 0 6C0 9.3137 2.68629 12 6 12ZM11.3333 6C11.3333 8.94553 8.94553 11.3333 6 11.3333C3.05448 11.3333 0.666667 8.94553 0.666667 6C0.666667 3.05448 3.05448 0.666667 6 0.666667C8.94553 0.666667 11.3333 3.05448 11.3333 6Z" fill="black"/>
</g>
<defs>
<clipPath id="clip0_1_678">
<rect width="12" height="12" fill="white"/>
</clipPath>
</defs>
</svg>
