<svg width="16" height="16" viewBox="0 0 16 16" fill="none" xmlns="http://www.w3.org/2000/svg">
<path d="M8.65599 1.79875V8.96359L10.8949 6.53981C11.1448 6.26935 11.5665 6.25263 11.837 6.50246C12.1075 6.75232 12.1242 7.17405 11.8743 7.44452L8.54113 11.0529C8.51493 11.0897 8.48459 11.1243 8.45013 11.1561C8.17966 11.406 7.75786 11.3893 7.50806 11.1188L4.15173 7.48539C3.90189 7.21492 3.91861 6.79312 4.18907 6.54331C4.45953 6.29348 4.88131 6.3102 5.13114 6.58066L7.32266 8.95312V1.79875C7.32266 1.43056 7.62113 1.13208 7.98933 1.13208C8.35753 1.13208 8.65599 1.43056 8.65599 1.79875Z" fill="#AEAEAE"/>
<path d="M1.33333 10.6664C1.33333 10.2982 1.03485 9.99976 0.666667 9.99976C0.298477 9.99976 0 10.2982 0 10.6664V11.3331C0 13.174 1.49239 14.6664 3.33333 14.6664H12.6667C14.5076 14.6664 16 13.174 16 11.3331V10.6664C16 10.2982 15.7015 9.99976 15.3333 9.99976C14.9651 9.99976 14.6667 10.2982 14.6667 10.6664V11.3331C14.6667 12.4376 13.7713 13.3331 12.6667 13.3331H3.33333C2.22877 13.3331 1.33333 12.4376 1.33333 11.3331V10.6664Z" fill="#AEAEAE"/>
</svg>
