<svg width="16" height="16" viewBox="0 0 16 16" fill="none" xmlns="http://www.w3.org/2000/svg">
<path fill-rule="evenodd" clip-rule="evenodd" d="M11.6941 0.512595C12.2148 -0.00810456 13.059 -0.00810429 13.5797 0.512595L15.4696 2.40249C15.9903 2.92319 15.9903 3.76741 15.4696 4.28811L5.34587 14.4118C5.18384 14.5739 4.98277 14.6914 4.76209 14.7531L0.995273 15.8063C0.494647 15.9463 0.033544 15.4849 0.173833 14.9844L1.22899 11.2196C1.29075 10.9992 1.40821 10.7985 1.57004 10.6366L11.6941 0.512595ZM12.6369 1.4554L14.5268 3.3453L13.6562 4.21586L11.7568 2.33555L12.6369 1.4554ZM12.7134 5.15868L10.814 3.27837L2.51285 11.5794L1.7775 14.2031L4.40307 13.469L12.7134 5.15868Z" fill="#AEAEAE"/>
</svg>
