<svg width="14" height="14" viewBox="0 0 14 14" fill="none" xmlns="http://www.w3.org/2000/svg">
<path fill-rule="evenodd" clip-rule="evenodd" d="M2.33333 0C1.47422 0 0.777771 0.696446 0.777771 1.55556V12.4444C0.777771 13.3035 1.47422 14 2.33333 14H11.6667C12.5258 14 13.2222 13.3035 13.2222 12.4444V4.02967C13.2222 3.71053 13.0915 3.40534 12.8605 3.18516L9.85685 0.322172C9.63989 0.115365 9.35164 0 9.05189 0H2.33333ZM1.55555 1.55556C1.55555 1.126 1.90377 0.777778 2.33333 0.777778H8.55745V3.11279C8.55745 3.75713 9.07977 4.27945 9.72412 4.27945H12.4444V12.4444C12.4444 12.874 12.0962 13.2222 11.6667 13.2222H2.33333C1.90377 13.2222 1.55555 12.874 1.55555 12.4444V1.55556ZM12.0653 3.50168L9.33523 0.899481V3.11279C9.33523 3.32757 9.50934 3.50168 9.72412 3.50168H12.0653Z" fill="#10069F"/>
</svg>
