<svg width="15" height="12" viewBox="0 0 15 12" fill="none" xmlns="http://www.w3.org/2000/svg">
<path fill-rule="evenodd" clip-rule="evenodd" d="M1.18821 0.0517644C0.635084 0.206648 0.201237 0.664892 0.0553229 1.2483C-0.0192538 1.54642 -0.0180431 10.4496 0.056599 10.748C0.203625 11.3358 0.639763 11.7885 1.20722 11.9424C1.49021 12.0192 13.1829 12.0192 13.4659 11.9424C14.0333 11.7885 14.4695 11.3358 14.6165 10.748C14.6602 10.5733 14.6666 10.001 14.6666 6.2682C14.6666 1.56025 14.6766 1.80346 14.4653 1.39068C14.3432 1.15193 14.0535 0.855966 13.8228 0.73424C13.4501 0.537577 13.5595 0.543132 10.0599 0.543132H6.84128L6.66333 0.392167C6.45305 0.213804 6.20863 0.0884319 5.96874 0.035884C5.85044 0.00995083 5.09113 -0.00139694 3.57993 0.000136564C1.75337 0.00197676 1.33356 0.0110414 1.18821 0.0517644ZM5.82096 1.12474C5.98742 1.1904 6.06279 1.30245 6.37788 1.95279C6.64137 2.49664 6.71824 2.62532 6.87675 2.78787C6.97983 2.89354 7.14577 3.023 7.24554 3.07559C7.62052 3.27314 7.54267 3.2685 10.4894 3.26894C13.5066 3.26939 13.3353 3.25623 13.5149 3.50152L13.6031 3.62185V7.08606V10.5503L13.5149 10.6706C13.3301 10.9229 13.8663 10.9028 7.33655 10.9028C0.806783 10.9028 1.34296 10.9229 1.15817 10.6706L1.07001 10.5503V5.99557V1.44088L1.15771 1.32116C1.33474 1.07945 1.22361 1.09001 3.59577 1.08916C5.02899 1.08861 5.75905 1.1003 5.82096 1.12474ZM13.3136 1.68954C13.4702 1.76686 13.5915 1.94417 13.611 2.124L13.6271 2.27319L13.4525 2.22603C13.3107 2.18772 12.7727 2.17886 10.5875 2.17886C8.76129 2.17886 7.86752 2.16718 7.80498 2.1425C7.67311 2.09047 7.57081 1.98121 7.48001 1.79549L7.40088 1.63362H10.3007C12.9211 1.63362 13.2114 1.639 13.3136 1.68954Z" fill="#000000"/>
</svg>
