<svg width="12" height="12" viewBox="0 0 12 12" fill="none" xmlns="http://www.w3.org/2000/svg">
<path fill-rule="evenodd" clip-rule="evenodd" d="M4.56532 4.01679C4.49558 4.12594 3.97629 4.94109 3.41135 5.82825C2.48278 7.28643 2.1946 7.72784 2.10236 7.83321C2.05609 7.88608 1.97881 7.91102 1.82338 7.92326C1.66938 7.93539 1.67051 7.93452 1.64731 8.05779L1.63635 8.11596H2.24232H2.84829L2.86616 8.04705C2.8965 7.93007 2.90228 7.93469 2.71557 7.92663C2.57778 7.92069 2.53921 7.91355 2.50387 7.88748C2.41638 7.82299 2.45503 7.73461 2.81431 7.17766L3.04961 6.81288L3.95336 6.81688L4.85712 6.82088L4.92551 7.16985C4.97549 7.42495 4.99486 7.56472 4.99746 7.68943L5.00102 7.86004L4.93735 7.89021C4.88944 7.9129 4.82885 7.92204 4.69252 7.92709C4.49149 7.93457 4.49937 7.92982 4.47529 8.05779L4.46433 8.11596H5.27858H6.09281L6.11012 8.03765C6.13442 7.92764 6.13563 7.92984 6.05044 7.92984C6.00809 7.92984 5.93659 7.91921 5.89153 7.90622C5.78295 7.87492 5.72821 7.80875 5.67635 7.64616C5.63166 7.50608 5.63113 7.50349 5.20298 5.33969L4.90375 3.82748L4.79795 3.82292L4.69215 3.81836L4.56532 4.01679ZM4.61755 5.60396C4.71778 6.12764 4.79766 6.55816 4.79508 6.56067C4.79249 6.5632 4.42622 6.56345 3.98115 6.56123L3.17194 6.55721L3.68453 5.7507C4.45575 4.53723 4.42525 4.58345 4.43059 4.61965C4.43319 4.63734 4.51733 5.08029 4.61755 5.60396ZM8.44413 4.97584C8.27823 5.01257 8.19058 5.04392 8.02872 5.12438C7.82753 5.22439 7.68848 5.32663 7.48421 5.52472C6.92144 6.07052 6.60674 6.7554 6.60674 7.4343C6.60674 7.6512 6.62371 7.756 6.67821 7.87555C6.7703 8.07762 6.94777 8.17938 7.21261 8.18195C7.50695 8.18482 7.7915 8.05071 8.12261 7.75303C8.37362 7.52737 8.62184 7.22769 8.79518 6.94108C8.83258 6.87923 8.8649 6.82864 8.86703 6.82864C8.87053 6.82864 8.63205 7.99931 8.61189 8.08106L8.60329 8.11596H9.16812H9.73295L9.74913 8.02926C9.7607 7.96732 9.76032 7.94124 9.74781 7.93798C9.73817 7.93547 9.64402 7.92587 9.53857 7.91664C9.27603 7.89367 9.27303 7.88962 9.30677 7.60413C9.31533 7.53162 9.4339 6.92225 9.57025 6.25C9.70662 5.57774 9.81817 5.02461 9.81817 5.02084C9.81817 5.01707 9.67976 5.01397 9.51061 5.01397C9.29956 5.01395 9.16545 5.00659 9.08322 4.99049C8.90408 4.9554 8.57095 4.94777 8.44413 4.97584ZM8.72373 5.25313C8.86385 5.2772 9.1631 5.37848 9.1631 5.40184C9.1631 5.40669 9.11776 5.63025 9.06232 5.89863L8.96155 6.38661L8.844 6.55721C8.48509 7.07821 8.15574 7.44211 7.88272 7.61941C7.60858 7.7974 7.37892 7.80838 7.27863 7.64827C7.14081 7.42828 7.24928 6.67842 7.51013 6.04801C7.70323 5.5813 7.92862 5.33659 8.24043 5.25508C8.34996 5.22645 8.56346 5.22558 8.72373 5.25313Z" fill="black"/>
<rect x="0.25" y="0.25" width="11.5" height="11.5" rx="2.75" stroke="#858585" stroke-width="0.5"/>
</svg>
