<svg width="12" height="12" viewBox="0 0 12 12" fill="none" xmlns="http://www.w3.org/2000/svg">
<path fill-rule="evenodd" clip-rule="evenodd" d="M0.429438 0.748755C0.238265 0.415422 0.478907 0 0.86317 0H11.1381C11.522 0 11.7627 0.414907 11.5721 0.748235L8.1345 6.75865C8.048 6.9098 8.00255 7.08095 8.00255 7.2551V11.5C8.00255 11.7761 7.77865 12 7.50255 12H4.50854C4.2324 12 4.00854 11.7761 4.00854 11.5V7.25575C4.00854 7.0812 3.96285 6.90965 3.876 6.75825L0.429438 0.748755ZM4.74346 6.26075L1.72633 1H10.276L7.26645 6.26215C7.0935 6.5645 7.00255 6.9068 7.00255 7.2551V11H5.00855V7.25575C5.00855 6.9066 4.91715 6.5636 4.74346 6.26075Z" fill="#10069F"/>
</svg>
