<svg width="20" height="20" viewBox="0 0 20 20" fill="none" xmlns="http://www.w3.org/2000/svg">
<path d="M3.5 17H16.5C16.775 17 17 16.775 17 16.5V3.5C17 3.225 16.775 3 16.5 3H3.5C3.225 3 3 3.225 3 3.5V16.5C3 16.775 3.225 17 3.5 17Z" fill="white"/>
<path d="M11.6909 10.657L10.8129 11.943L9.12593 9.61698C9.03319 9.48912 8.91149 9.38505 8.77078 9.31328C8.63008 9.24152 8.47438 9.2041 8.31643 9.2041C8.15848 9.2041 8.00277 9.24152 7.86207 9.31328C7.72137 9.38505 7.59966 9.48912 7.50693 9.61698L5.11693 12.913C5.0087 13.0622 4.94385 13.2385 4.92953 13.4224C4.91522 13.6062 4.952 13.7904 5.03582 13.9546C5.11964 14.1188 5.24723 14.2567 5.40449 14.3529C5.56175 14.4492 5.74255 14.5001 5.92693 14.5H14.0729C14.2549 14.5 14.4334 14.4504 14.5893 14.3565C14.7451 14.2626 14.8724 14.1279 14.9574 13.967C15.0424 13.8061 15.0819 13.625 15.0715 13.4434C15.0612 13.2617 15.0016 13.0862 14.8989 12.936L13.3429 10.656C13.2512 10.5215 13.128 10.4115 12.984 10.3354C12.8401 10.2594 12.6797 10.2197 12.5169 10.2197C12.3541 10.2197 12.1938 10.2594 12.0498 10.3354C11.9059 10.4115 11.7827 10.5215 11.6909 10.656V10.657V10.657Z" stroke="#A6CCC3"/>
<path d="M13.5 7.5C13.7652 7.5 14.0196 7.39464 14.2071 7.20711C14.3946 7.01957 14.5 6.76522 14.5 6.5C14.5 6.23478 14.3946 5.98043 14.2071 5.79289C14.0196 5.60536 13.7652 5.5 13.5 5.5C13.2348 5.5 12.9804 5.60536 12.7929 5.79289C12.6054 5.98043 12.5 6.23478 12.5 6.5C12.5 6.76522 12.6054 7.01957 12.7929 7.20711C12.9804 7.39464 13.2348 7.5 13.5 7.5V7.5Z" stroke="#FF9810"/>
<path opacity="0.64" fill-rule="evenodd" clip-rule="evenodd" d="M3.5 18H16.5C17.327 18 18 17.327 18 16.5V3.5C18 2.673 17.327 2 16.5 2H3.5C2.673 2 2 2.673 2 3.5V16.5C2 17.327 2.673 18 3.5 18ZM3 3.5C3 3.36739 3.05268 3.24021 3.14645 3.14645C3.24021 3.05268 3.36739 3 3.5 3H16.5C16.6326 3 16.7598 3.05268 16.8536 3.14645C16.9473 3.24021 17 3.36739 17 3.5V16.5C17 16.6326 16.9473 16.7598 16.8536 16.8536C16.7598 16.9473 16.6326 17 16.5 17H3.5C3.36739 17 3.24021 16.9473 3.14645 16.8536C3.05268 16.7598 3 16.6326 3 16.5V3.5Z" fill="#605E5C"/>
</svg>
