<svg width="18" height="18" viewBox="0 0 18 18" fill="none" xmlns="http://www.w3.org/2000/svg">
<g clip-path="url(#clip0_4_48)">
<path d="M12.4749 11.8282C11.9404 12.4565 11.2233 12.9521 10.3737 13.2281C9.51045 13.5086 8.62465 13.5254 7.8124 13.3211C6.4175 12.9703 5.23115 11.9633 4.76256 10.5211C4.29175 9.07207 4.66532 7.55272 5.59715 6.44762C5.77515 6.23652 6.0906 6.20972 6.3017 6.38772C6.51285 6.56572 6.53965 6.88117 6.36165 7.09227C5.63335 7.95597 5.3586 9.11932 5.7136 10.2121C6.067 11.2997 6.9663 12.0772 8.0563 12.3513C8.68895 12.5104 9.383 12.4986 10.0647 12.2771C10.7356 12.0591 11.2969 11.6697 11.7132 11.1803C12.4488 10.3154 12.7276 9.14652 12.371 8.04892C12.2408 7.64832 12.0376 7.29167 11.7794 6.98672C11.6009 6.77597 11.6271 6.46047 11.8378 6.28202C12.0485 6.10357 12.364 6.12972 12.5425 6.34047C12.8828 6.74227 13.1508 7.21292 13.322 7.73992C13.795 9.19547 13.4159 10.7219 12.4749 11.8282Z" fill="white"/>
<path d="M9.51221 4.5C9.51221 4.22385 9.28836 4 9.01221 4C8.73606 4 8.51221 4.22385 8.51221 4.5V8.5045C8.51221 8.78065 8.73606 9.0045 9.01221 9.0045C9.28836 9.0045 9.51221 8.78065 9.51221 8.5045V4.5Z" fill="white"/>
<path fill-rule="evenodd" clip-rule="evenodd" d="M18 9C18 13.9706 13.9706 18 9 18C4.02944 18 0 13.9706 0 9C0 4.02944 4.02944 0 9 0C13.9706 0 18 4.02944 18 9ZM9 17C13.4183 17 17 13.4183 17 9C17 4.58172 13.4183 1 9 1C4.58172 1 1 4.58172 1 9C1 13.4183 4.58172 17 9 17Z" fill="white"/>
</g>
<defs>
<clipPath id="clip0_4_48">
<rect width="18" height="18" fill="white"/>
</clipPath>
</defs>
</svg>
