<svg width="93" height="33" viewBox="0 0 93 33" fill="none" xmlns="http://www.w3.org/2000/svg">
<path d="M48.951 25.1931C47.7283 25.1931 46.6826 24.8874 45.8139 24.276C44.9451 23.6486 44.3499 22.804 44.0281 21.7422C43.7868 21.0022 43.6661 20.0289 43.6661 18.8223C43.6661 17.7122 43.7868 16.7389 44.0281 15.9024C44.3499 14.8727 44.9451 14.0523 45.8139 13.4409C46.6987 12.8296 47.7444 12.5239 48.951 12.5239C50.1576 12.5239 51.2113 12.8296 52.1122 13.4409C53.0132 14.0523 53.6004 14.8245 53.8739 15.7576C53.9704 16.015 54.0347 16.2804 54.0669 16.5539C54.0669 16.6826 53.9945 16.7631 53.8497 16.7952L52.0398 17.0607H51.9916C51.879 17.0607 51.7985 16.9883 51.7503 16.8435L51.6779 16.4574C51.5492 15.9104 51.2355 15.4519 50.7367 15.0819C50.238 14.7119 49.6347 14.5268 48.9269 14.5268C48.2351 14.5268 47.6479 14.7119 47.1652 15.0819C46.6826 15.4519 46.3689 15.9426 46.2241 16.5539C46.0793 17.1331 46.0069 17.8972 46.0069 18.8464C46.0069 19.7795 46.0793 20.5356 46.2241 21.1148C46.385 21.7583 46.6987 22.2651 47.1652 22.6351C47.6479 23.0051 48.2351 23.1901 48.9269 23.1901C49.6347 23.1901 50.238 23.0051 50.7367 22.6351C51.2515 22.2651 51.5733 21.7824 51.702 21.1872C51.7181 21.1711 51.7181 21.155 51.702 21.1389C51.702 21.1068 51.71 21.0826 51.7261 21.0665V20.97C51.7744 20.8413 51.8629 20.793 51.9916 20.8252L53.8015 21.1148C53.9302 21.147 53.9945 21.2113 53.9945 21.3079V21.4044C53.9945 21.5492 53.9543 21.7261 53.8739 21.9353C53.6004 22.9166 53.0132 23.7049 52.1122 24.3002C51.2113 24.8954 50.1576 25.1931 48.951 25.1931ZM61.627 25.1931C60.4365 25.1931 59.3988 24.8954 58.514 24.3002C57.6292 23.6888 57.0098 22.8442 56.6559 21.7664C56.3663 20.8976 56.2215 19.9163 56.2215 18.8223C56.2215 17.6801 56.3582 16.7148 56.6317 15.9265C56.9857 14.8647 57.605 14.0362 58.4899 13.4409C59.3747 12.8296 60.4284 12.5239 61.6511 12.5239C62.8094 12.5239 63.8149 12.8296 64.6676 13.4409C65.5363 14.0362 66.1557 14.8566 66.5257 15.9024C66.8153 16.7228 66.9601 17.6881 66.9601 18.7982C66.9601 19.9243 66.8153 20.9137 66.5257 21.7664C66.1718 22.8442 65.5604 23.6888 64.6917 24.3002C63.823 24.8954 62.8014 25.1931 61.627 25.1931ZM61.627 23.1901C62.2705 23.1901 62.8336 23.0132 63.3162 22.6592C63.7988 22.2892 64.1447 21.7744 64.3539 21.1148C64.5308 20.5035 64.6193 19.7473 64.6193 18.8464C64.6193 17.9455 64.5389 17.1974 64.378 16.6022C64.1689 15.9426 63.823 15.4358 63.3403 15.0819C62.8577 14.7119 62.2705 14.5268 61.5787 14.5268C60.9191 14.5268 60.348 14.7119 59.8654 15.0819C59.3827 15.4358 59.0369 15.9426 58.8277 16.6022C58.6507 17.1652 58.5623 17.9133 58.5623 18.8464C58.5623 19.7795 58.6507 20.5356 58.8277 21.1148C59.0208 21.7744 59.3586 22.2892 59.8412 22.6592C60.34 23.0132 60.9352 23.1901 61.627 23.1901ZM75.3461 12.5963C75.8609 12.5963 76.3275 12.7009 76.7458 12.91C76.8584 12.9583 76.8986 13.0548 76.8664 13.1996L76.4803 15.0095C76.4642 15.1543 76.3677 15.2025 76.1907 15.1543C75.9172 15.0417 75.5955 14.9854 75.2255 14.9854L74.8876 15.0095C74.1315 15.0417 73.5041 15.3071 73.0053 15.8058C72.5227 16.2885 72.2814 16.9239 72.2814 17.7122V24.7587C72.2814 24.9196 72.201 25 72.0401 25H70.2061C70.0452 25 69.9647 24.9196 69.9647 24.7587V12.9583C69.9647 12.7974 70.0452 12.717 70.2061 12.717H72.0401C72.201 12.717 72.2814 12.7974 72.2814 12.9583V14.2373C72.2814 14.2855 72.2894 14.3177 72.3055 14.3338C72.3377 14.3338 72.3618 14.3177 72.3779 14.2855C73.1019 13.1594 74.0913 12.5963 75.3461 12.5963ZM88.8579 15.8058C89.1635 16.6746 89.3164 17.7042 89.3164 18.8947C89.3164 20.0208 89.1877 20.9941 88.9303 21.8146C88.5924 22.8925 88.0374 23.7291 87.2652 24.3243C86.493 24.9035 85.5036 25.1931 84.297 25.1931C83.75 25.1931 83.2271 25.0885 82.7284 24.8793C82.2458 24.6541 81.8275 24.3404 81.4736 23.9382C81.4414 23.906 81.4092 23.898 81.377 23.9141C81.3609 23.9302 81.3529 23.9543 81.3529 23.9865V29.3678C81.3529 29.5287 81.2725 29.6092 81.1116 29.6092H79.2776C79.1167 29.6092 79.0363 29.5287 79.0363 29.3678V12.9583C79.0363 12.7974 79.1167 12.717 79.2776 12.717H81.1116C81.2725 12.717 81.3529 12.7974 81.3529 12.9583V13.7546C81.3529 13.7868 81.3609 13.8109 81.377 13.827C81.4092 13.8431 81.4414 13.8351 81.4736 13.8029C81.8275 13.4007 82.2458 13.087 82.7284 12.8618C83.211 12.6365 83.7339 12.5239 84.297 12.5239C85.4553 12.5239 86.4125 12.8135 87.1686 13.3927C87.9409 13.9557 88.5039 14.7601 88.8579 15.8058ZM86.2034 22.0318C86.7182 21.2596 86.9756 20.1978 86.9756 18.8464C86.9756 17.6077 86.7745 16.6102 86.3723 15.8541C85.9057 14.9693 85.1416 14.5268 84.0798 14.5268C83.1467 14.5268 82.4388 14.9612 81.9562 15.83C81.5701 16.5217 81.377 17.5353 81.377 18.8706C81.377 20.2219 81.5862 21.2515 82.0045 21.9594C82.471 22.7799 83.1547 23.1901 84.0557 23.1901C85.0209 23.1901 85.7368 22.804 86.2034 22.0318Z" fill="white"/>
<path fill-rule="evenodd" clip-rule="evenodd" d="M8.70181 18.7828C8.70181 18.7828 7.90003 18.703 7.90003 19.3756C7.90003 23.1754 10.622 25.8833 14.8984 25.8833C18.0728 25.8833 19.4283 25.088 21.3454 23.5944C21.7939 23.2445 22.272 22.9185 22.6347 23.3301C22.8874 23.6117 26.2552 26.8466 26.2552 26.8466C26.6771 27.2583 26.5617 27.7498 26.1093 28.1442C25.6601 28.5402 20.624 32.61 14.8368 32.61C7.2675 32.61 0 29.1833 0 16.2774C0 5.8737 5.66472 0 13.9758 0C22.903 0 27.9492 6.48627 27.9492 15.2334V17.4466C27.9492 18.3489 27.2457 18.7828 26.6654 18.7828H8.70181ZM19.33 9.91137C18.469 8.01769 16.6868 6.60567 13.9757 6.60567C11.2678 6.60567 9.48328 8.01769 8.62144 9.91137C8.1293 11.0748 7.94133 11.9327 7.87972 13.3373H20.071C20.0086 11.9327 19.8222 11.0748 19.33 9.91137Z" fill="#0039CB"/>
<mask id="mask0_1_2205" style="mask-type:alpha" maskUnits="userSpaceOnUse" x="0" y="0" width="28" height="33">
<path fill-rule="evenodd" clip-rule="evenodd" d="M8.70181 18.7828C8.70181 18.7828 7.90003 18.703 7.90003 19.3756C7.90003 23.1754 10.622 25.8833 14.8984 25.8833C18.0728 25.8833 19.4283 25.088 21.3454 23.5944C21.7939 23.2445 22.272 22.9185 22.6347 23.3301C22.8874 23.6117 26.2552 26.8466 26.2552 26.8466C26.6771 27.2583 26.5617 27.7498 26.1093 28.1442C25.6601 28.5402 20.624 32.61 14.8368 32.61C7.2675 32.61 0 29.1833 0 16.2774C0 5.8737 5.66472 0 13.9758 0C22.903 0 27.9492 6.48627 27.9492 15.2334V17.4466C27.9492 18.3489 27.2457 18.7828 26.6654 18.7828H8.70181ZM19.33 9.91137C18.469 8.01769 16.6868 6.60567 13.9757 6.60567C11.2678 6.60567 9.48328 8.01769 8.62144 9.91137C8.1293 11.0748 7.94133 11.9327 7.87972 13.3373H20.071C20.0086 11.9327 19.8222 11.0748 19.33 9.91137Z" fill="white"/>
</mask>
<g mask="url(#mask0_1_2205)">
<rect width="28.3073" height="32.61" fill="white"/>
</g>
<path fill-rule="evenodd" clip-rule="evenodd" d="M34.2701 2.30366C33.7696 1.95976 32.9869 2.01721 32.5351 2.42099L29.658 5.01522C29.2054 5.42223 29.2435 6.04287 29.7358 6.40134C29.7358 6.40134 34.1801 9.60326 34.1801 16.495C34.1801 23.0283 29.4949 26.7935 29.4949 26.7935C29.0228 27.1722 29.0026 27.8146 29.4552 28.2225L32.3104 30.7746C32.7622 31.1824 33.5458 31.2318 34.0511 30.9017C34.0511 30.9017 40.7625 26.4115 40.7625 16.5185C40.7625 6.69426 34.2701 2.30366 34.2701 2.30366Z" fill="#FF3D00"/>
<mask id="mask1_1_2205" style="mask-type:alpha" maskUnits="userSpaceOnUse" x="29" y="2" width="12" height="30">
<path fill-rule="evenodd" clip-rule="evenodd" d="M34.2701 2.30366C33.7696 1.95976 32.9869 2.01721 32.5351 2.42099L29.658 5.01522C29.2054 5.42223 29.2435 6.04287 29.7358 6.40134C29.7358 6.40134 34.1801 9.60326 34.1801 16.495C34.1801 23.0283 29.4949 26.7935 29.4949 26.7935C29.0228 27.1722 29.0026 27.8146 29.4552 28.2225L32.3104 30.7746C32.7622 31.1824 33.5458 31.2318 34.0511 30.9017C34.0511 30.9017 40.7625 26.4115 40.7625 16.5185C40.7625 6.69426 34.2701 2.30366 34.2701 2.30366Z" fill="white"/>
</mask>
<g mask="url(#mask1_1_2205)">
<rect x="28.3073" width="12.4552" height="32.61" fill="#FF3D00"/>
</g>
</svg>
