<svg width="20" height="20" viewBox="0 0 20 20" fill="none" xmlns="http://www.w3.org/2000/svg">
<path d="M5.9375 18.125H17.8125C17.9844 18.125 18.125 17.9844 18.125 17.8125V5.625H15.3125C14.7956 5.625 14.375 5.20438 14.375 4.6875V1.875H5.9375C5.76562 1.875 5.625 2.01562 5.625 2.1875V17.8125C5.625 17.9844 5.76562 18.125 5.9375 18.125Z" fill="white"/>
<path d="M17.6831 5.00002L15 2.31689V4.68752C15 4.85939 15.1406 5.00002 15.3125 5.00002H17.6831Z" fill="white"/>
<path opacity="0.64" fill-rule="evenodd" clip-rule="evenodd" d="M18.475 4.90875L15.0912 1.52437C14.9151 1.34932 14.6771 1.25073 14.4288 1.25H5.9375C5.42062 1.25 5 1.67062 5 2.1875V17.8125C5 18.3294 5.42062 18.75 5.9375 18.75H17.8125C18.3294 18.75 18.75 18.3294 18.75 17.8125V5.57125C18.75 5.32125 18.6525 5.08563 18.475 4.90875ZM15 2.31687L17.6831 5H15.3125C15.2297 4.99983 15.1503 4.96686 15.0917 4.90829C15.0331 4.84972 15.0002 4.77033 15 4.6875V2.31687ZM5.9375 18.125H17.8125C17.9844 18.125 18.125 17.9844 18.125 17.8125V5.625H15.3125C14.7956 5.625 14.375 5.20438 14.375 4.6875V1.875H5.9375C5.76562 1.875 5.625 2.01562 5.625 2.1875V17.8125C5.625 17.8954 5.65792 17.9749 5.71653 18.0335C5.77513 18.0921 5.85462 18.125 5.9375 18.125Z" fill="#605E5C"/>
<path d="M13.125 11.25L12.5 10.625H11.25L10.625 11.25V13.1081C10.8908 13.4695 11.2317 13.769 11.6242 13.9863C12.0166 14.2035 12.4515 14.3333 12.8988 14.3667C13.3461 14.4001 13.7954 14.3364 14.2158 14.1799C14.6362 14.0234 15.0178 13.7778 15.3344 13.46C15.6247 13.1698 15.8549 12.8253 16.012 12.4461C16.1691 12.0669 16.25 11.6605 16.25 11.25H13.125Z" fill="#ED6C47"/>
<path d="M10.625 9.39188V11.25H13.125V8.125C12.6382 8.12583 12.1584 8.24089 11.7242 8.46092C11.29 8.68096 10.9135 8.99982 10.625 9.39188Z" fill="#FF8F6B"/>
<path d="M13.75 7.5C14.5788 7.5 15.3737 7.82924 15.9597 8.41529C16.5458 9.00134 16.875 9.7962 16.875 10.625H13.75V7.5Z" fill="#FFC7B5"/>
<path d="M2.1875 15.625H9.0625C9.31114 15.625 9.5496 15.5262 9.72541 15.3504C9.90123 15.1746 10 14.9361 10 14.6875V7.8125C10 7.56386 9.90123 7.3254 9.72541 7.14959C9.5496 6.97377 9.31114 6.875 9.0625 6.875H2.1875C1.93886 6.875 1.7004 6.97377 1.52459 7.14959C1.34877 7.3254 1.25 7.56386 1.25 7.8125V14.6875C1.25 14.9361 1.34877 15.1746 1.52459 15.3504C1.7004 15.5262 1.93886 15.625 2.1875 15.625Z" fill="#C43E1C"/>
<path fill-rule="evenodd" clip-rule="evenodd" d="M7.27502 9.16245C6.96877 8.89558 6.52814 8.76245 5.95252 8.76245H4.23877V13.75H4.97627L4.97939 11.9893H5.89627C6.26314 11.9893 6.58252 11.9168 6.86127 11.7762C7.12952 11.6479 7.35454 11.4442 7.50877 11.19C7.66002 10.9375 7.73252 10.6462 7.73252 10.3212C7.73252 9.81495 7.57939 9.4287 7.27439 9.16245H7.27502ZM5.98502 11.25H4.97627V9.37495H6.01502C6.63377 9.37495 6.97564 9.78745 6.97564 10.3362C6.97564 10.6193 6.86127 10.8812 6.70064 11.0287C6.53877 11.1756 6.30064 11.25 5.98564 11.25H5.98502Z" fill="white"/>
</svg>
