<svg width="23" height="21" viewBox="0 0 23 21" fill="none" xmlns="http://www.w3.org/2000/svg">
<path fill-rule="evenodd" clip-rule="evenodd" d="M16.8417 14.1678L22.2594 19.1144C22.6273 19.4461 22.6273 19.992 22.2594 20.3238C21.8914 20.6597 21.2982 20.6597 20.9302 20.3238L15.5126 15.3814C13.8753 16.6075 11.7827 17.3424 9.49702 17.3424C4.24952 17.3424 0 13.4582 0 8.67119C0 3.88419 4.24952 0 9.49702 0C14.7399 0 18.994 3.88419 18.994 8.67119C18.994 10.7582 18.1846 12.673 16.8417 14.1678ZM1.88567 8.67119C1.88567 12.5008 5.29816 15.6165 9.49709 15.6165C13.6914 15.6165 17.1085 12.5008 17.1085 8.67119C17.1085 4.84159 13.6914 1.72164 9.49709 1.72164C5.29816 1.72164 1.88567 4.84159 1.88567 8.67119Z" fill="black"/>
<mask id="mask0_1_2189" style="mask-type:alpha" maskUnits="userSpaceOnUse" x="0" y="0" width="23" height="21">
<path fill-rule="evenodd" clip-rule="evenodd" d="M16.8417 14.1678L22.2594 19.1144C22.6273 19.4461 22.6273 19.992 22.2594 20.3238C21.8914 20.6597 21.2982 20.6597 20.9302 20.3238L15.5126 15.3814C13.8753 16.6075 11.7827 17.3424 9.49702 17.3424C4.24952 17.3424 0 13.4582 0 8.67119C0 3.88419 4.24952 0 9.49702 0C14.7399 0 18.994 3.88419 18.994 8.67119C18.994 10.7582 18.1846 12.673 16.8417 14.1678ZM1.88567 8.67119C1.88567 12.5008 5.29816 15.6165 9.49709 15.6165C13.6914 15.6165 17.1085 12.5008 17.1085 8.67119C17.1085 4.84159 13.6914 1.72164 9.49709 1.72164C5.29816 1.72164 1.88567 4.84159 1.88567 8.67119Z" fill="white"/>
</mask>
<g mask="url(#mask0_1_2189)">
<rect x="-0.958328" y="-0.875" width="24.9167" height="22.75" fill="#42E8B4"/>
</g>
</svg>
