<svg width="12" height="12" viewBox="0 0 12 12" fill="none" xmlns="http://www.w3.org/2000/svg">
<path fill-rule="evenodd" clip-rule="evenodd" d="M4.99323 0C3.88866 0 2.99323 0.89543 2.99323 2V2.5H1.49323V2.50207H0.5C0.223858 2.50207 0 2.72593 0 3.00207C0 3.27822 0.223858 3.50207 0.5 3.50207H1.49323V10C1.49323 11.1046 2.38866 12 3.49323 12H8.49323C9.59778 12 10.4932 11.1046 10.4932 10V3.50207H11.5C11.7761 3.50207 12 3.27822 12 3.00207C12 2.72593 11.7761 2.50207 11.5 2.50207H10.4932V2.5H8.99323V2C8.99323 0.89543 8.09778 0 6.99323 0H4.99323ZM7.99323 2.5V2C7.99323 1.44772 7.54553 1 6.99323 1H4.99323C4.44094 1 3.99323 1.44772 3.99323 2V2.5H7.99323ZM9.49323 3.50207H2.49323V10C2.49323 10.5523 2.94094 11 3.49323 11H8.49323C9.04552 11 9.49323 10.5523 9.49323 10V3.50207Z" fill="#AEAEAE"/>
</svg>
