<svg width="13" height="12" viewBox="0 0 13 12" fill="none" xmlns="http://www.w3.org/2000/svg">
<g clip-path="url(#clip0_1_683)">
<path d="M4.5 4.5083C4.77614 4.5083 5 4.73216 5 5.00832V9.50832C5 9.78442 4.77614 10.0083 4.5 10.0083C4.22385 10.0083 4 9.78442 4 9.50832V5.00832C4 4.73216 4.22385 4.5083 4.5 4.5083Z" fill="black"/>
<path d="M8 5.00832C8 4.73216 7.77615 4.5083 7.5 4.5083C7.22385 4.5083 7 4.73216 7 5.00832V9.50832C7 9.78442 7.22385 10.0083 7.5 10.0083C7.77615 10.0083 8 9.78442 8 9.50832V5.00832Z" fill="black"/>
<path fill-rule="evenodd" clip-rule="evenodd" d="M5 0C3.89543 0 3 0.89543 3 2V2.5H1.5V2.50207H0.506775C0.230633 2.50207 0.0067749 2.72593 0.0067749 3.00207C0.0067749 3.27822 0.230633 3.50207 0.506775 3.50207H1.5V10C1.5 11.1046 2.39543 12 3.5 12H8.5C9.60455 12 10.5 11.1046 10.5 10V3.50207H11.5068C11.7829 3.50207 12.0068 3.27822 12.0068 3.00207C12.0068 2.72593 11.7829 2.50207 11.5068 2.50207H10.5V2.5H9V2C9 0.89543 8.10455 0 7 0H5ZM8 2.5V2C8 1.44772 7.5523 1 7 1H5C4.44771 1 4 1.44772 4 2V2.5H8ZM9.5 3.50207H2.5V10C2.5 10.5523 2.94772 11 3.5 11H8.5C9.0523 11 9.5 10.5523 9.5 10V3.50207Z" fill="black"/>
</g>
<defs>
<clipPath id="clip0_1_683">
<rect width="12.5" height="12" fill="white"/>
</clipPath>
</defs>
</svg>
