<svg width="16" height="16" viewBox="0 0 16 16" fill="none" xmlns="http://www.w3.org/2000/svg">
<g clip-path="url(#clip0_1_1323)">
<path d="M7.34404 14.2013L7.34404 7.03641L5.10511 9.46019C4.85524 9.73065 4.43351 9.74737 4.16304 9.49754C3.89257 9.24768 3.87584 8.82595 4.12571 8.55548L7.45891 4.94708C7.48511 4.91035 7.51544 4.87568 7.54991 4.84388C7.82037 4.59401 8.24217 4.61075 8.49197 4.88121L11.8483 8.51461C12.0981 8.78508 12.0814 9.20688 11.811 9.45669C11.5405 9.70652 11.1187 9.6898 10.8689 9.41934L8.67737 7.04688L8.67737 14.2013C8.67737 14.5694 8.3789 14.8679 8.0107 14.8679C7.64251 14.8679 7.34404 14.5694 7.34404 14.2013Z" fill="#10069F"/>
<path d="M14.6667 5.33358C14.6667 5.70178 14.9651 6.00024 15.3333 6.00024C15.7015 6.00024 16 5.70178 16 5.33358L16 4.66691C16 2.82598 14.5076 1.33358 12.6667 1.33358L3.33333 1.33358C1.4924 1.33358 2.77503e-07 2.82598 1.16564e-07 4.66691L5.82819e-08 5.33358C2.60928e-08 5.70178 0.298467 6.00024 0.666666 6.00024C1.03487 6.00024 1.33333 5.70178 1.33333 5.33358L1.33333 4.66691C1.33333 3.56238 2.22873 2.66691 3.33333 2.66691L12.6667 2.66691C13.7712 2.66691 14.6667 3.56238 14.6667 4.66691L14.6667 5.33358Z" fill="#10069F"/>
</g>
<defs>
<clipPath id="clip0_1_1323">
<rect width="16" height="16" fill="white" transform="translate(16 16) rotate(-180)"/>
</clipPath>
</defs>
</svg>
