<svg width="10" height="12" viewBox="0 0 10 12" fill="none" xmlns="http://www.w3.org/2000/svg">
<path fill-rule="evenodd" clip-rule="evenodd" d="M5.06066 0.0605469C2.96394 0.0605469 1.26421 1.76028 1.26421 3.857C1.26421 5.29713 2.06606 6.54997 3.24765 7.19339C1.7922 7.7765 0.695426 9.0644 0.378772 10.6349C0.219806 11.4233 0.890953 11.9999 1.57141 11.9999H8.41629C9.10389 11.9999 9.7776 11.4118 9.60784 10.6188C9.27454 9.06153 8.1939 7.81696 6.80919 7.22772C8.02599 6.59523 8.85711 5.32319 8.85711 3.857C8.85711 1.76028 7.1574 0.0605469 5.06066 0.0605469ZM2.12135 3.857C2.12135 2.23366 3.43731 0.917689 5.06066 0.917689C6.684 0.917689 7.99997 2.23366 7.99997 3.857C7.99997 5.48035 6.684 6.79632 5.06066 6.79632C3.43731 6.79632 2.12135 5.48035 2.12135 3.857ZM1.219 10.8043C1.57444 9.04147 3.13268 7.71415 4.99997 7.71415C6.78347 7.71415 8.38457 8.99905 8.76969 10.7982C8.78803 10.8838 8.76441 10.9599 8.70514 11.0238C8.64193 11.092 8.53839 11.1427 8.41629 11.1427H1.57141C1.45048 11.1427 1.34775 11.0929 1.28477 11.0259C1.2258 10.9632 1.20202 10.8886 1.219 10.8043Z" fill="#FF3D00"/>
</svg>
