<svg width="20" height="20" viewBox="0 0 20 20" fill="none" xmlns="http://www.w3.org/2000/svg">
<path d="M18 7H15.5C14.673 7 14 6.327 14 5.5V2H6V18H18V7Z" fill="white"/>
<path d="M18 6.00003V5.70703L15 2.70703V5.50003C15 5.77503 15.225 6.00003 15.5 6.00003H18Z" fill="white"/>
<path opacity="0.64" fill-rule="evenodd" clip-rule="evenodd" d="M18.707 5L15 1.293C14.8125 1.10545 14.5582 1.00006 14.293 1H6C5.73478 1 5.48043 1.10536 5.29289 1.29289C5.10536 1.48043 5 1.73478 5 2V18C5 18.2652 5.10536 18.5196 5.29289 18.7071C5.48043 18.8946 5.73478 19 6 19H18C18.2652 19 18.5196 18.8946 18.7071 18.7071C18.8946 18.5196 19 18.2652 19 18V5.707C18.9999 5.4418 18.8946 5.18749 18.707 5ZM18 5.707V6H15.5C15.3675 5.99974 15.2404 5.94697 15.1467 5.85326C15.053 5.75955 15.0003 5.63253 15 5.5V2.707L18 5.707ZM6 2.2V17.8C6 17.91 6.09 18 6.2 18H17.8C17.853 18 17.9039 17.9789 17.9414 17.9414C17.9789 17.9039 18 17.853 18 17.8V7H15.5C15.1022 7 14.7206 6.84196 14.4393 6.56066C14.158 6.27936 14 5.89782 14 5.5V2H6.2C6.14696 2 6.09609 2.02107 6.05858 2.05858C6.02107 2.09609 6 2.14696 6 2.2Z" fill="#605E5C"/>
<path d="M16.5 12H12V13H16.5C16.6326 13 16.7598 12.9473 16.8536 12.8536C16.9473 12.7598 17 12.6326 17 12.5C17 12.3674 16.9473 12.2402 16.8536 12.1464C16.7598 12.0527 16.6326 12 16.5 12Z" fill="#185ABD"/>
<path d="M16.5 10H12V11H16.5C16.6326 11 16.7598 10.9473 16.8536 10.8536C16.9473 10.7598 17 10.6326 17 10.5C17 10.3674 16.9473 10.2402 16.8536 10.1464C16.7598 10.0527 16.6326 10 16.5 10Z" fill="#2B7CD3"/>
<path d="M16.5 8H12V9H16.5C16.6326 9 16.7598 8.94732 16.8536 8.85355C16.9473 8.75979 17 8.63261 17 8.5C17 8.36739 16.9473 8.24021 16.8536 8.14645C16.7598 8.05268 16.6326 8 16.5 8Z" fill="#41A5EE"/>
<path d="M2 16H10C10.2652 16 10.5196 15.8946 10.7071 15.7071C10.8946 15.5196 11 15.2652 11 15V7C11 6.73478 10.8946 6.48043 10.7071 6.29289C10.5196 6.10536 10.2652 6 10 6H2C1.73478 6 1.48043 6.10536 1.29289 6.29289C1.10536 6.48043 1 6.73478 1 7V15C1 15.2652 1.10536 15.5196 1.29289 15.7071C1.48043 15.8946 1.73478 16 2 16Z" fill="#185ABD"/>
<path d="M7.2101 13.936L6.0001 9.49599L4.7951 13.936H3.9191L2.7561 8.09399H3.6421L4.4501 11.92L5.5241 8.09399H6.3901L7.5431 12.01L8.3451 8.09399H9.2301L8.0861 13.936H7.2101Z" fill="white"/>
</svg>
